<svg xmlns="http://www.w3.org/2000/svg" width="16" height="16" fill="none" viewBox="0 0 16 16">
    <path fill="#C5C5C5" fill-rule="evenodd" d="M4.039 4.99s.312-.078.46-.14a2.5 2.5 0 001.54-2.31 2.45 2.45 0 00-.19-1A2.48 2.48 0 004.499.19a2.45 2.45 0 00-1-.19 2.5 2.5 0 00-2.31 1.54 2.52 2.52 0 00.54 2.73c.35.343.79.579 1.27.68v5.09a2.59 2.59 0 00-1.27.68 2.52 2.52 0 00-.54 2.73 2.5 2.5 0 002.31 1.54 2.45 2.45 0 001-.19 2.48 2.48 0 001.35-1.35 2.45 2.45 0 00.19-1 2.5 2.5 0 00-2-2.45V4.99zm-1.33-1.25a1.5 1.5 0 002.08-2.08 1.55 1.55 0 00-.68-.56 1.49 1.49 0 00-.86-.08 1.49 1.49 0 00-1.18 1.18 1.49 1.49 0 00.08.86c.117.277.311.513.56.68zm0 7.51a1.5 1.5 0 012.08 2.08 1.55 1.55 0 01-.68.56 1.49 1.49 0 01-.86.08 1.49 1.49 0 01-1.18-1.18 1.49 1.49 0 01.08-.86 1.55 1.55 0 01.56-.68z" clip-rule="evenodd"/>
    <path fill="#C5C5C5" d="M14.309 10.72a2.51 2.51 0 00-1.27-.68V4.49a2.488 2.488 0 00-2.5-2.5h-1.85L9.959.72l-.71-.71-2.13 2.13v.7l2.13 2.13.71-.71-1.27-1.27h1.85a1.5 1.5 0 011.5 1.5v5.55a2.412 2.412 0 00-.89.37 2.5 2.5 0 103.89 2.08c0-.663-.262-1.299-.73-1.77zm-.71 2.83a1.5 1.5 0 11-1.35-2.53 1.49 1.49 0 01.86.08 1.5 1.5 0 01.49 2.45z"/>
</svg>